<svg viewBox="0 0 512 512" xmlns="http://www.w3.org/2000/svg" fill-rule="evenodd" clip-rule="evenodd" stroke-linejoin="round" stroke-miterlimit="2"><path d="M64.533 382.182c-17.768-33.078-22.71-71.222-27.85-111.047-18.09-140.228 86.15-245.946 234.451-234.864 55.51 4.149 148.322 52.494 148.322 52.494s18.232 16.632 26.85 26.331c36.87 41.5 59.28 96.169 59.28 156.039 0 129.626-105.054 234.864-234.452 234.864-36.576 0-71.207-8.409-102.062-23.395l.002.001L48.992 506l-30.27-30.272 45.81-93.545h0zm32.336 72.472l78.921-14.883v-.001c28.007 15.822 60.338 24.85 94.761 24.85 106.605 0 193.156-86.596 193.156-193.257 0-106.663-86.55-193.258-193.156-193.258-106.605 0-193.154 86.595-193.154 193.258 0 38.056 11.018 73.56 30.03 103.477v-.002l-10.558 79.816z" fill="#fff" stroke="#000" stroke-width="10.206" stroke-linecap="round" stroke-miterlimit="3"/><path d="M388.255 332.469c-1.62-3.926-31.088-31.487-31.088-31.487s-15.755 2.633-20.486.237c-3.69-1.181-8.88-1.872-11.619.867l-24.28 26.533c-2.839 1.525-5.195 1.597-7.109.347-35.119-17.686-62.305-42.897-79.388-77.692-1.344-1.836-1.315-3.945-.348-6.243l17.516-19.51c3.7-4.682 4.798-10.405 1.562-17.862l-15.088-42.228c-1.793-4.856-3.522-7.78-6.809-11.401-6.72-7.4-27.341-25.755-27.341-25.755l-11.396 152.45s41.584 48.167 75.29 72.607c23.056 14.201 47.35 25.107 73.183 31.908 9.693 1.315 17.979.94 25.36-.52 42.887-8.481 43.592-48.496 42.041-52.251z" fill="#fff" stroke="#000" stroke-width="10.206" stroke-linecap="round" stroke-miterlimit="3"/><path d="M77.396 346.764l25.74 26.52m100.992-183.682l29.906 30.687m-38.431-61.806l31.03 31.872m-39.918 21.012l29.597 30.403m133.677 91.295l27.22 28.002m-49.127-10.244l28.251 29.033m-61.111-24.374l28.717 29.59m-68.554-42.227l28.76 29.54m-234.037 97.23l29.615 30.396m58.748-47.42l30.6 30.01m-58.63-24.741l29.292 30.136m-60.74-24.01l28.801 29.65m65.596-28.091l29.468 30.253m6.026-22.995l29.552 30.389m6.922-27.465L274.846 506m3.081-33.194l29.538 30.385m1.837-37.646l29.457 30.252m.001-41.493l29.735 30.519m-4.094-44.541l29.864 30.715m-5.359-48.065l29.776 30.68m-6.849-50.52l29.075 29.958m-11.305-52.898l29.884 30.792m-13.954-55.504l29.98 30.795m-17.404-55.795l29.688 30.53m-19.874-61.424l30.112 30.893m-24.147-63.55l30.193 30.974m-29.044-68.535l30.315 31.24m-35.442-71.852l30.013 30.926m-45.387-75.52l30.75 31.605M318.199 64.226l28.518 29.324M279.76 51.879l28.713 29.499m-63.953-33.5L273.9 78.12m-60.933-28.367l29.594 30.43m-58.677-23.968l29.011 29.84m-56.008-19.303l28.424 29.25m-53.612-14.727l28.605 29.457M109.62 98.81l29.36 30.196m-49.078-9.155l28.487 29.271m-45.093-5.165l29.877 30.698m-42.501-4.748l28.72 29.551m-37.765.002l29.342 30.196m-33.667 3.13l29.793 30.655m-27.787 6.758l29.454 29.236m-20.833 5.491l30.112 31.026M72.953 376.33l30.171 31.017m-34.319.331l27.663 28.5" fill="none" stroke="#000" stroke-width="10.232" stroke-linecap="round" stroke-linejoin="miter" stroke-miterlimit="5"/><g fill="#fff" stroke="#000" stroke-width="10.206" stroke-linecap="round" stroke-miterlimit="3"><path d="M34.261 351.91C16.493 318.833 6.412 281.02 6.412 240.864 6.412 111.239 111.467 6 240.863 6c129.398 0 234.451 105.24 234.451 234.864 0 129.625-105.053 234.863-234.45 234.863-36.578 0-71.209-8.408-102.063-23.394l.001.001-120.081 23.393L34.26 351.91h0zm32.336 72.472L145.52 409.5v-.002c28.006 15.823 60.338 24.85 94.76 24.85 106.606 0 193.156-86.595 193.156-193.256 0-106.663-86.55-193.258-193.155-193.258S47.126 134.429 47.126 241.092c0 38.056 11.018 73.559 30.029 103.477v-.002l-10.558 79.815z"/><path d="M357.984 302.198c-2.222-5.38-34.064-22.382-51.575-31.25-3.69-1.181-8.88-1.873-11.618.867l-24.28 26.533c-2.84 1.524-5.195 1.596-7.11.346-35.118-17.685-62.305-42.896-79.387-77.691-1.344-1.837-1.315-3.946-.348-6.244l17.515-19.51c3.702-4.681 4.799-10.405 1.562-17.862l-15.087-42.228c-1.793-4.856-4.279-8.092-7.457-9.712-8.289-2.225-19.825-2.315-26.464 1.493-35.09 20.12-38.13 63.07-11.626 109.496 18.44 32.304 41.584 62.185 75.29 86.624 23.057 14.202 47.351 25.107 73.184 31.909 9.693 1.315 17.979.94 25.36-.52 42.887-8.482 43.591-48.497 42.04-52.251z"/></g></svg>