<svg height="163.839" viewBox="0 0 643 643" width="163.839" xmlns="http://www.w3.org/2000/svg" shape-rendering="geometricPrecision" text-rendering="geometricPrecision" image-rendering="optimizeQuality" fill-rule="evenodd" clip-rule="evenodd"><defs><style>.fil2{fill:#229000}</style></defs><g id="Layer_x0020_1"><g id="_444245648"><rect height="643" rx="69" ry="69" width="643" fill="#2ab200"/><path d="M325 100c120 0 217 97 217 216 0 120-97 217-217 217-38 0-75-10-106-27l-118 37 37-116c-19-32-30-70-30-111 0-119 97-216 217-216zm-50 200s16 26 42 47c26 20 40 24 40 24s23-29 26-29c3-1 23 8 32 13 8 4 20 11 20 14 0 2-1 20-7 27-6 6-23 22-39 20-78-6-150-77-163-129-2-9-1-44 6-53 8-9 13-15 23-16s16 0 19 7c4 7 19 41 20 45s-20 24-19 30zm-31 178c24 12 52 19 81 19 100 0 180-81 180-181 0-99-80-180-180-180s-181 81-181 180c0 39 13 75 33 104l-20 69 69-21 18 10z" fill="#fff"/><path class="fil2" d="M542 316c0 167-180 270-323 190l-118 37 100 100h372l70-70V334L506 197c22 34 36 75 36 119z"/><path class="fil2" d="M177 420zm67 58c118 59 261-26 261-162 0-99-80-180-180-180-147 0-231 166-148 284l-20 69 69-21 18 10zm145-62c-78-6-150-77-163-129-5-21 1-66 29-69 10-1 16 0 19 7 4 7 19 41 20 45s-20 24-19 30c11 19 53 64 82 71 28-35 21-35 58-16 8 4 20 11 20 14 0 30-27 49-46 47z"/></g></g></svg>